<?xml version="1.0" encoding="UTF-8"?>
<svg version="1.1" xmlns="http://www.w3.org/2000/svg" width="1134" height="1134">
<path d="M0 0 C2.2261398 0.00564364 4.45227198 0.00846199 6.67841721 0.0110817 C28.01161975 0.04757768 49.0761563 0.48232175 70.25486374 3.31805801 C71.60691439 3.48733297 72.95913408 3.65526223 74.31150436 3.82196426 C162.8080847 14.82706822 248.74576858 47.18138996 365.25486374 130.31805801 C366.165103 131.07965225 366.165103 131.07965225 367.09373093 131.85663223 C375.09157413 138.5747342 382.85530948 145.51817226 390.47751999 152.65839005 C392.4378532 154.48893197 394.40855952 156.30793232 396.37986374 158.12665176 C397.79675522 159.44021139 399.21342487 160.75401034 400.62986374 162.06805801 C401.61092087 162.97068375 401.61092087 162.97068375 402.61179733 163.89154434 C406.5643849 167.57475174 410.17542572 171.42291522 413.69187546 175.52362442 C415.56680633 177.67619267 417.56697331 179.65856123 419.62986374 181.63055801 C423.76327037 185.70791845 427.39614562 190.05716037 431.02048874 194.58758926 C433.1018408 197.13105971 435.26687689 199.53763055 437.50486374 201.94305801 C443.31400047 208.328057 448.43011038 215.23518203 453.60837936 222.13202286 C455.17264588 224.20889747 456.75031898 226.27472079 458.33298874 228.33758926 C474.89154165 250.00830538 489.38369567 273.28798611 502.25486374 297.31805801 C502.72247116 298.18624161 503.19007858 299.0544252 503.67185593 299.94891739 C541.63118103 370.6628612 564.89378269 450.03649625 569.25486374 530.31805801 C569.30981003 531.27663712 569.36475632 532.23521622 569.42136765 533.22284317 C574.09431833 617.62543025 560.75132908 703.16735952 489.25486374 859.31805801 C488.69766647 860.24521622 488.14046921 861.17237442 487.56638718 862.12762833 C480.27806768 874.22632428 472.57050687 885.90392725 464.25486374 897.31805801 C463.09600392 898.92482477 461.93714995 900.53159574 460.77830124 902.13837051 C454.71981203 910.49256898 448.52230894 918.62733376 441.75486374 926.41962051 C439.41690083 929.13019626 437.17422511 931.89502592 434.94236374 934.69305801 C429.60064784 941.25792173 423.76790368 947.34884212 417.96091843 953.49872208 C415.90572635 955.69037796 413.88198418 957.90899289 411.86301804 960.13397598 C404.80072046 967.9160871 397.56520681 975.45171939 389.57126999 982.28290176 C387.0864345 984.46603716 384.67646693 986.71679673 382.26585007 988.98114395 C375.80397203 995.04764399 369.19467094 1000.79818427 362.25486374 1006.31805801 C361.12631832 1007.23747679 359.99876835 1008.15811837 358.87205124 1009.07977676 C288.92715693 1066.06107227 204.83642079 1104.90356405 16.25486374 1134.31805801 C15.29789597 1134.33997208 14.34092819 1134.36188614 13.3549614 1134.38446426 C-67.05237474 1135.96185193 -147.93689524 1120.28011265 -385.74513626 980.31805801 C-387.55380717 978.53037748 -389.34132124 976.72520076 -391.12013626 974.90790176 C-392.84404321 973.22129088 -394.64932667 971.68237777 -396.49513626 970.13055801 C-400.91596984 966.31102555 -404.77912465 962.03197972 -408.68263626 957.69696426 C-411.42803484 954.64982404 -414.23483644 951.66468923 -417.05153275 948.68353653 C-423.25092611 942.11129738 -429.10949763 935.38391754 -434.74513626 928.31805801 C-435.73659494 927.1158594 -436.73023455 925.91545735 -437.72560501 924.71649551 C-456.33228331 902.23836398 -473.34462254 877.71482342 -487.74513626 852.31805801 C-488.11977005 851.66208633 -488.49440384 851.00611465 -488.88039017 850.33026505 C-491.8995554 845.02732489 -494.83318343 839.68045462 -497.74513626 834.31805801 C-498.20259232 833.48371231 -498.66004837 832.64936661 -499.13136673 831.7897377 C-513.01366354 806.36983685 -524.27951923 779.67530929 -533.74513626 752.31805801 C-534.12476517 751.22702774 -534.50439407 750.13599747 -534.89552689 749.01190567 C-548.64387768 709.0725953 -557.49717113 667.32980436 -561.74513626 625.31805801 C-561.83233932 624.46820328 -561.91954239 623.61834854 -562.00938797 622.74274063 C-563.75358598 605.20063169 -564.10938605 587.70840032 -564.06319427 570.09638977 C-564.05754871 567.90913952 -564.0547314 565.72189704 -564.05211258 563.53464127 C-564.01465102 542.00409613 -563.57094521 520.68944432 -560.74513626 499.31805801 C-560.57170727 497.96520486 -560.39836946 496.61234001 -560.22511673 495.25946426 C-552.09271174 432.74936563 -534.14423012 372.66968141 -506.13283157 316.13299942 C-504.84489547 313.52041968 -503.58368578 310.896929 -502.33107376 308.26727676 C-485.43836637 273.14133935 -463.04692121 240.01315398 -438.1894722 210.06659317 C-436.14140109 207.58716699 -434.13519936 205.07433756 -432.12013626 202.56805801 C-428.09779376 197.65104007 -423.84674554 192.98420011 -419.51857376 188.33758926 C-417.55532004 186.22695993 -415.67748395 184.06173392 -413.81154251 181.86493301 C-408.5872866 175.87110839 -402.89489515 170.31908197 -397.2663765 164.70892715 C-395.31218003 162.76008932 -393.36338479 160.80596529 -391.41505814 158.85126114 C-385.36094128 152.79361599 -379.29904275 146.83946752 -372.74513626 141.31805801 C-371.58772529 140.29740682 -370.43277217 139.27396169 -369.28029251 138.24774551 C-360.70221459 130.67906967 -351.81561534 123.64538895 -342.66896439 116.77899551 C-341.00364129 115.51436437 -339.36401735 114.21602531 -337.72951126 112.91180801 C-270.07932943 58.9395318 -184.21479154 24.02592735 -73.62013626 4.50555801 C-72.90123215 4.40618942 -72.18232803 4.30682083 -71.44163895 4.20444107 C-47.67115995 0.96274802 -23.96475866 -0.0617195 0 0 Z " fill="#000000" transform="translate(563.7451362609863,-0.3180580139160156)"/>
<path d="M0 0 C0.78528076 -0.01796631 1.57056152 -0.03593262 2.37963867 -0.05444336 C10.78894633 -0.04105416 17.18234226 2.44849895 23.29296875 8.2578125 C30.26539885 16.07763815 30.68141962 23.84440149 30.27316856 33.92995381 C29.77368861 41.96157686 28.48066518 49.92318339 27.31445312 57.87866211 C27.01120471 60.00512228 26.70894669 62.13172389 26.40759277 64.25845337 C25.5905955 70.00434657 24.75990729 75.74818458 23.92672157 81.49174953 C23.04675561 87.57507975 22.17979946 93.66026421 21.31140137 99.74525452 C19.65819847 111.31579304 17.99375525 122.88468465 16.32509184 134.45300251 C14.27509798 148.66850313 12.23888753 162.88597123 10.203125 177.10351562 C7.94715647 192.85686029 5.68859269 208.60981797 3.42053843 224.36142749 C2.14492131 233.22343772 0.87481144 242.08622777 -0.39176035 250.94953519 C-1.34866504 257.64376673 -2.31070701 264.33723438 -3.2767044 271.0301599 C-4.12933136 276.94125749 -4.97410571 282.85346376 -5.81656742 288.76601899 C-6.17583636 291.27897061 -6.53751444 293.79157914 -6.90176296 296.30381382 C-7.40722481 299.7927955 -7.90388097 303.28292816 -8.39855957 306.77345276 C-8.62395401 308.30778707 -8.62395401 308.30778707 -8.85390186 309.87311804 C-10.95380353 322.61538354 -10.95380353 322.61538354 -6.875 334.3125 C-2.20936048 338.18201849 2.66477569 337.81089779 8.4375 337.75 C9.45005859 337.74242676 10.46261719 337.73485352 11.50585938 337.72705078 C34.61850076 337.23930712 58.29571796 331.45021079 79.81225586 323.14111328 C83.36650813 321.79121362 86.31187937 320.84182858 90.125 321.3125 C92.66988628 323.16957917 93.95843993 324.29833423 94.4765625 327.453125 C93.96753807 331.59319036 92.17122906 334.74424099 90.1875 338.375 C89.78144531 339.12724854 89.37539063 339.87949707 88.95703125 340.65454102 C72.59199545 370.27512955 45.04058877 390.3656246 13.83813477 402.04296875 C0.9129606 407.01301296 -7.796503 415.17919617 -13.7109375 427.640625 C-19.0467227 439.88786352 -16.22212082 456.68168346 -14.375 469.5625 C-11.64532897 488.72450313 -12.89590113 506.66244298 -24.72265625 522.83984375 C-31.50116433 530.93901543 -40.23358495 537.42853168 -50.9140625 538.6640625 C-60.64984513 539.09727063 -67.54672181 536.60954734 -74.75 530.0625 C-82.57890007 521.19419062 -82.90818686 510.65938088 -83.875 499.375 C-84.92026399 487.41674033 -86.54353568 475.92925921 -89.39868164 464.25961304 C-89.82134625 462.53182791 -90.22732575 460.79998011 -90.63085938 459.06762695 C-97.46708547 429.9059103 -109.45400967 403.31492771 -128.875 380.3125 C-129.57367187 379.47847656 -130.27234375 378.64445312 -130.9921875 377.78515625 C-137.46917077 370.30550831 -144.76778151 364.07103465 -152.9375 358.5 C-157.18342491 355.33814103 -157.18342491 355.33814103 -157.875 352.3125 C-157.96288708 349.482536 -157.90491952 346.96234318 -156.875 344.3125 C-153.99546021 341.26710611 -151.81192497 340.05703814 -147.70239258 339.81420898 C-146.05823767 339.79327511 -144.41374135 339.79257062 -142.76953125 339.80859375 C-141.4506617 339.7944619 -141.4506617 339.7944619 -140.10514832 339.78004456 C-137.29902823 339.75143747 -134.49375385 339.74831283 -131.6875 339.75 C-115.94276414 340.16017472 -115.94276414 340.16017472 -100.875 336.3125 C-99.23144531 335.63960937 -99.23144531 335.63960937 -97.5546875 334.953125 C-83.56607134 328.01726518 -75.23582188 318.03008516 -69.875 303.3125 C-68.85918321 299.34554213 -68.13692163 295.3459138 -67.4375 291.3125 C-67.06549652 289.24969371 -66.69169824 287.18721054 -66.31640625 285.125 C-66.11342422 284.00537369 -65.9104422 282.88574738 -65.7013092 281.73219299 C-64.72508911 276.4470082 -63.66329909 271.17920946 -62.60522461 265.90991211 C-62.27613224 264.26790156 -62.27613224 264.26790156 -61.94039154 262.59271908 C-59.77943236 251.81881182 -57.60386587 241.04786048 -55.42486572 230.2775898 C-54.48179888 225.61556006 -53.53968976 220.95333691 -52.59750366 216.29112911 C-50.85809705 207.68408184 -49.11833832 199.07710619 -47.37695312 190.47045898 C-46.15113159 184.41174988 -44.92653841 178.35279354 -43.70269775 172.29368401 C-43.24395331 170.02360153 -42.78478466 167.75360473 -42.32513428 165.48370552 C-39.66944264 152.36797008 -37.06810563 139.24386496 -34.56937408 126.0972147 C-32.88506357 117.25893614 -31.02249101 108.46817363 -29.0625 99.6875 C-28.74772153 98.26439484 -28.43326939 96.84121746 -28.11914062 95.41796875 C-27.37478936 92.0486523 -26.62625504 88.68028482 -25.875 85.3125 C-26.40903442 86.35869507 -26.40903442 86.35869507 -26.95385742 87.42602539 C-34.20262948 101.59550259 -41.62179241 115.61644813 -49.52734375 129.43359375 C-52.55718486 134.73109141 -55.51480204 140.06644591 -58.46264648 145.40991211 C-65.699629 158.52295855 -73.15126976 171.48062848 -80.875 184.3125 C-81.53258301 185.4070752 -82.19016602 186.50165039 -82.86767578 187.62939453 C-118.28798727 246.54419266 -156.52300866 304.87831273 -201.25 357.21875 C-203.71415964 360.1080132 -206.11161 363.04768458 -208.5 366 C-212.12334495 370.45153808 -215.89463872 374.73632455 -219.7578125 378.98046875 C-221.65551169 381.07073889 -223.52233415 383.18236115 -225.375 385.3125 C-237.56091304 399.27090948 -250.23125296 412.75383054 -263.3125 425.875 C-264.14048096 426.70757324 -264.96846191 427.54014648 -265.8215332 428.39794922 C-270.10111437 432.6667571 -274.45377306 436.77846872 -279.03686523 440.71948242 C-281.82359916 443.13460247 -284.49828242 445.66508521 -287.1875 448.1875 C-292.00948049 452.67314455 -296.95335022 456.93350492 -302.09375 461.0546875 C-304.53858227 463.03939684 -306.92545408 465.07724054 -309.30297852 467.14160156 C-318.09417543 474.73815687 -327.44537242 481.53598511 -336.875 488.3125 C-337.69452148 488.90498535 -338.51404297 489.4974707 -339.35839844 490.10791016 C-381.73776618 520.66882986 -429.44128377 544.57916496 -480.64746094 555.81982422 C-482.14987494 556.15212052 -483.65052545 556.49247918 -485.14941406 556.84033203 C-523.86198669 565.79962024 -579.43587623 569.53268084 -615 548.4609375 C-638.247734 533.40802974 -650.3676804 510.40058945 -656.44970703 483.79882812 C-661.27162528 459.87598448 -660.97337681 435.13380034 -658.18261719 410.9765625 C-657.9788604 409.21196399 -657.78407518 407.44630456 -657.59863281 405.6796875 C-654.92072683 380.19729798 -649.54421387 354.7528519 -641.875 330.3125 C-639.56001414 332.4377058 -638.13918654 334.42505383 -636.74609375 337.234375 C-636.16093994 338.39078491 -636.16093994 338.39078491 -635.56396484 339.57055664 C-634.94448975 340.8040686 -634.94448975 340.8040686 -634.3125 342.0625 C-627.7786028 354.75737711 -620.15717911 366.44065635 -610.875 377.3125 C-609.83085938 378.54033203 -609.83085938 378.54033203 -608.765625 379.79296875 C-592.23402831 398.69878411 -572.26628067 412.00289925 -547.875 418.3125 C-546.80894531 418.6115625 -545.74289062 418.910625 -544.64453125 419.21875 C-494.64522067 431.42197157 -440.8508862 406.30962571 -399.09545898 381.05419922 C-378.75480296 368.57375049 -359.15700348 354.65891945 -340.875 339.3125 C-339.10537027 337.87351857 -337.33449899 336.43606286 -335.5625 335 C-326.14864315 327.28921982 -316.92598763 319.37600382 -307.99682617 311.1081543 C-305.29021657 308.60206805 -302.55210687 306.14860348 -299.75 303.75 C-295.72520593 300.26796862 -292.03171544 296.48321503 -288.29296875 292.69921875 C-286.31232417 290.74417216 -284.31211836 288.91779076 -282.1875 287.125 C-273.38871887 279.5831876 -265.07857682 271.12086427 -257.609375 262.265625 C-255.30601828 259.67175482 -252.84292382 257.24786437 -250.375 254.8125 C-246.67091474 251.15257022 -243.12212233 247.42306207 -239.7421875 243.4609375 C-237.84686723 241.28012966 -235.89488714 239.15811449 -233.92944336 237.04052734 C-229.11741616 231.85455098 -224.55909578 226.54122506 -220.12109375 221.02734375 C-217.7866941 218.20576505 -215.35509402 215.50659288 -212.875 212.8125 C-207.9813174 207.4828211 -203.41292156 201.94553512 -198.875 196.3125 C-197.84205767 195.04743201 -196.80814342 193.7831572 -195.7734375 192.51953125 C-189.50493373 184.85637812 -183.34089442 177.13501665 -177.35205078 169.25048828 C-175.61582077 166.97243972 -173.86841145 164.70314837 -172.12109375 162.43359375 C-164.31467369 152.27297549 -156.70065479 142.02033624 -149.39648438 131.49316406 C-147.78315169 129.18085862 -146.15115979 126.88258642 -144.515625 124.5859375 C-129.10163824 102.88475178 -115.25647352 80.28682633 -102.46875 56.94140625 C-86.63322999 28.12787521 -59.67588998 12.79659789 -29.03125 3.72265625 C-19.37522721 1.00558598 -9.9870109 0.16069282 0 0 Z " fill="#FEFEFE" transform="translate(811.875,343.6875)"/>
<path d="M0 0 C14.28374528 10.89438199 25.42043861 26.09590407 28.28515625 44.12109375 C30.15498685 65.19526892 26.60560903 83.85053927 13.91015625 101.05859375 C1.99280428 115.1818664 -14.22815739 124.83070783 -32.71484375 127.12109375 C-52.70952654 128.38079892 -71.20254283 124.05655145 -86.7734375 110.87890625 C-87.41410156 110.29882812 -88.05476562 109.71875 -88.71484375 109.12109375 C-89.38644531 108.54101562 -90.05804687 107.9609375 -90.75 107.36328125 C-96.76647758 101.82209381 -100.75650122 95.22671531 -104.71484375 88.12109375 C-105.13894531 87.37085938 -105.56304688 86.620625 -106 85.84765625 C-113.81191542 70.3426378 -113.75157684 50.29744749 -108.43798828 34.10742188 C-104.2242173 22.53306646 -97.47008883 13.63828081 -88.71484375 5.12109375 C-88.10898437 4.5178125 -87.503125 3.91453125 -86.87890625 3.29296875 C-62.86163659 -18.96693972 -25.83609543 -17.88080849 0 0 Z " fill="#FDFDFD" transform="translate(830.71484375,157.87890625)"/>
<path d="M0 0 C1.41687119 4.25061356 0.19320039 6.71851625 -1 11 C-1.99 10.67 -2.98 10.34 -4 10 C-2.8905928 6.51329166 -1.73662334 3.22515763 0 0 Z " fill="#3D3D3D" transform="translate(786,427)"/>
</svg>
