<svg xmlns="http://www.w3.org/2000/svg" viewBox="0 0 24 24">
  <path fill="currentColor" d="M7.7 3.1c.6-.4 1.4-.1 1.6.6l.6 2.1c.7-.2 1.4-.3 2.1-.3s1.4.1 2.1.3l.6-2.1c.2-.7 1-1 1.6-.6.4.3.6.8.4 1.3l-.7 2.4c1.9 1.1 3.1 3.1 3.1 5.5v3.1c0 3.2-2.6 5.8-5.8 5.8h-2.6C7.6 21.2 5 18.6 5 15.4v-3.1c0-2.4 1.2-4.4 3.1-5.5l-.7-2.4c-.2-.5 0-1 .3-1.3Zm4.3 4c-3 0-5.4 2.2-5.4 5.2v3.1c0 2.3 1.8 4.2 4.1 4.2h2.6c2.3 0 4.1-1.9 4.1-4.2v-3.1c0-3-2.4-5.2-5.4-5.2Zm-2.5 4.1c.6 0 1 .5 1 1.1s-.4 1.1-1 1.1-1-.5-1-1.1.4-1.1 1-1.1Zm5 0c.6 0 1 .5 1 1.1s-.4 1.1-1 1.1-1-.5-1-1.1.4-1.1 1-1.1Zm-4 4.4h3c.4 0 .8.3.8.8s-.4.8-.8.8h-3c-.4 0-.8-.3-.8-.8s.4-.8.8-.8Z"/>
</svg>
