<?xml version="1.0" encoding="UTF-8"?>
<svg version="1.1" xmlns="http://www.w3.org/2000/svg" width="1920" height="1920">
<path d="M0 0 C633.6 0 1267.2 0 1920 0 C1920 633.6 1920 1267.2 1920 1920 C1286.4 1920 652.8 1920 0 1920 C0 1286.4 0 652.8 0 0 Z " fill="#FAFAF8" transform="translate(0,0)"/>
<path d="M0 0 C44.57028976 -0.2388894 89.14018015 -0.39323909 133.71111387 -0.434863 C138.97798288 -0.43985378 144.24485093 -0.4455415 149.51171875 -0.45166016 C150.56021818 -0.45286651 151.60871762 -0.45407286 152.68898976 -0.45531577 C169.64667939 -0.47648692 186.60366272 -0.55406397 203.56105888 -0.65263933 C220.97248172 -0.75259269 238.38327884 -0.79157613 255.79498386 -0.77444887 C266.53188759 -0.76579446 277.26647553 -0.80418839 288.00293171 -0.90356803 C295.3742948 -0.9672347 302.74423061 -0.97145531 310.11574447 -0.92985225 C314.36424781 -0.90760194 318.60855782 -0.91067165 322.85656738 -0.98466301 C350.94900646 -1.44598708 350.94900646 -1.44598708 359.63408756 6.51530886 C362.10729059 9.19573061 364.28657286 11.9978264 366.40368843 14.9645853 C369.15277029 18.46986693 372.558888 21.19858541 376 24 C379.71313406 27.05697591 383.14274239 30.06106417 386.26586914 33.73413086 C389.75172608 37.76039243 393.41280936 41.55799569 397.18359375 45.31640625 C397.84279312 45.97656235 398.50199249 46.63671844 399.1811676 47.31687927 C400.56396835 48.70035506 401.94801076 50.08259083 403.33325195 51.46362305 C405.43230343 53.55731669 407.5259594 55.65629874 409.61914062 57.75585938 C410.97363786 59.10969571 412.32844531 60.46322175 413.68359375 61.81640625 C414.29843124 62.43326797 414.91326874 63.0501297 415.54673767 63.6856842 C420.62037522 68.7325529 425.84923314 73.61771286 431.5625 77.9375 C434.42738028 80.36162947 436.7371201 83.06645785 439.171875 85.9140625 C441.96294309 89.09874275 444.97840809 92.03651562 448 95 C448.86625 95.886875 449.7325 96.77375 450.625 97.6875 C452.91756373 100.01219452 452.91756373 100.01219452 455.375 101.8125 C457.59772219 103.66476849 459.26862619 105.4036709 461.125 107.59375 C465.08904785 112.17047993 469.32070922 116.43264012 473.625 120.6875 C474.36234375 121.42033203 475.0996875 122.15316406 475.859375 122.90820312 C476.93832031 123.98038086 476.93832031 123.98038086 478.0390625 125.07421875 C479.06241699 126.09201416 479.06241699 126.09201416 480.10644531 127.13037109 C481.27390749 128.28308195 482.44884511 129.42834562 483.63574219 130.56103516 C484.79203684 131.67216841 485.90241692 132.83083542 487 134 C487 134.66 487 135.32 487 136 C487.57878906 136.25007812 488.15757812 136.50015625 488.75390625 136.7578125 C491.29870619 138.16519751 492.93448831 139.77282931 494.9375 141.875 C497.13017104 144.13263907 499.21432835 146.16946893 501.6875 148.125 C504.01798347 150.01458119 505.75039577 152.09326264 507.6171875 154.4296875 C509.12618202 156.14329144 510.74106791 157.5456449 512.5 159 C515.76428178 161.70147457 518.28518379 164.74222055 521 168 C522.81236245 169.55677288 524.653531 171.05076082 526.546875 172.5078125 C528.43088414 174.44246705 528.89835282 175.27814705 529 178 C527.33464321 180.11506115 525.73929939 181.84207064 523.8046875 183.68359375 C523.2602298 184.22097672 522.71577209 184.75835968 522.15481567 185.31202698 C520.4062441 187.03258307 518.64116692 188.73502854 516.875 190.4375 C515.70719623 191.5802193 514.54051531 192.72408731 513.375 193.86914062 C511.21636916 195.98697195 509.05129299 198.09771705 506.87841797 200.20092773 C505.065006 201.95669615 503.27731503 203.72854096 501.49926758 205.52099609 C498.74323989 208.25467834 495.8903338 210.8692234 493.01953125 213.48046875 C486.03137927 219.88554025 479.3479635 226.56989307 472.6875 233.3125 C460.20194666 245.94959018 460.20194666 245.94959018 453.92407227 251.29418945 C449.09618327 255.57441536 444.68384334 260.3243032 440.18359375 264.94335938 C439.41402344 265.72388672 438.64445312 266.50441406 437.8515625 267.30859375 C437.15885254 268.01814209 436.46614258 268.72769043 435.75244141 269.45874023 C434 271 434 271 432 271 C432 271.66 432 272.32 432 273 C430.64990234 274.32446289 430.64990234 274.32446289 428.7109375 275.91015625 C425.13285957 278.95128595 421.77066782 282.15284051 418.4765625 285.49609375 C418.00007263 285.97825348 417.52358276 286.46041321 417.03265381 286.95718384 C415.05449468 288.96237243 413.08068411 290.97174998 411.11083984 292.98510742 C409.65371557 294.47224382 408.19058243 295.95325005 406.7265625 297.43359375 C405.43613037 298.74928345 405.43613037 298.74928345 404.11962891 300.09155273 C402 302 402 302 400 302 C400 302.66 400 303.32 400 304 C398.54443359 305.42993164 398.54443359 305.42993164 396.5234375 307.09765625 C391.18136506 311.63806467 386.35277682 316.62803839 381.47265625 321.65429688 C380.45365234 322.68973633 380.45365234 322.68973633 379.4140625 323.74609375 C378.8051416 324.37185303 378.1962207 324.9976123 377.56884766 325.64233398 C376 327 376 327 374 327 C373.73880371 327.59240479 373.47760742 328.18480957 373.20849609 328.79516602 C371.92782996 331.13167023 370.63600085 332.50088311 368.6640625 334.27734375 C368.01179688 334.87353516 367.35953125 335.46972656 366.6875 336.08398438 C366.006875 336.69564453 365.32625 337.30730469 364.625 337.9375 C359.36584953 342.65135908 359.36584953 342.65135908 354.7109375 347.94140625 C354.14632813 348.62074219 353.58171875 349.30007813 353 350 C350 350 350 350 348.44508362 348.52385139 C347.89932175 347.85163992 347.35355988 347.17942844 346.79125977 346.48684692 C343.17220663 342.17181805 339.32632892 338.18497047 335.33984375 334.21044922 C334.60879425 333.4776474 333.87774475 332.74484558 333.12454224 331.98983765 C330.73135337 329.59228331 328.33456762 327.1983634 325.9375 324.8046875 C324.2601893 323.12670231 322.583027 321.44856877 320.90600586 319.77029419 C317.40087388 316.26369249 313.89395132 312.75889416 310.38574219 309.25537109 C305.90029127 304.77562142 301.41935099 300.29139103 296.93974304 295.80579948 C293.48079409 292.34322911 290.01945715 288.88305376 286.55740356 285.4235878 C284.904538 283.7713869 283.25240826 282.11844953 281.6010437 280.46474838 C279.28983263 278.1509843 276.97541689 275.8404727 274.66015625 273.53076172 C273.64841843 272.51598755 273.64841843 272.51598755 272.61624146 271.48071289 C269.04655165 267.9267761 265.40630342 264.55123868 261.51829529 261.34681892 C259.03366916 259.14280663 257.08686962 256.58112822 255 254 C253.6078125 252.63875 253.6078125 252.63875 252.1875 251.25 C250 249 250 249 250 247 C249.195625 246.6596875 249.195625 246.6596875 248.375 246.3125 C243.16683138 243.43430155 239.16618139 239.17701588 235 235 C233.97751071 233.98102417 232.95451082 232.96256051 231.93107605 231.9445343 C231.10038605 231.11817978 231.10038605 231.11817978 230.25291443 230.27513123 C229.36818199 229.39511192 229.36818199 229.39511192 228.46557617 228.49731445 C222.02757682 222.09190093 215.59459854 215.68146928 209.16450024 209.26812458 C205.27773457 205.39184422 201.38910102 201.51747489 197.49633789 197.6472168 C193.72558767 193.89812116 189.95967688 190.14422789 186.19713783 186.38689232 C184.76149028 184.95494891 183.32407952 183.52477108 181.88490868 182.09636879 C179.88111897 180.10699891 177.88357611 178.11155824 175.88745117 176.11450195 C175.28750839 175.52174973 174.68756561 174.9289975 174.06944275 174.31828308 C170 170.22810964 170 170.22810964 170 168 C169.195625 167.6596875 169.195625 167.6596875 168.375 167.3125 C162.75478185 164.20658997 159.00624601 159.93076432 155 155 C151.8736702 151.69502279 148.53127051 148.6969735 145.125 145.6875 C141.35356493 142.32273371 138.03614554 138.83471055 134.78515625 134.9765625 C132.14368666 132.05187188 129.19955116 129.51947076 126.2109375 126.95703125 C123.69892866 124.73350399 121.35645636 122.3879224 119 120 C117.94867004 118.94716383 116.89654594 117.89512024 115.84375 116.84375 C109.39583333 110.39583333 102.94791667 103.94791667 96.5 97.5 C95.71625 96.71753906 94.9325 95.93507813 94.125 95.12890625 C92.57365271 93.57470721 91.03348691 92.00932409 89.5 90.4375 C87.26896184 88.26223779 84.97635145 86.23008813 82.625 84.1875 C78.99782954 80.99798812 75.8694617 77.63254304 72.7578125 73.94921875 C70.30705221 71.2315979 67.58211641 68.90604195 64.80078125 66.53515625 C62.74769538 64.78491168 60.79373431 63.0179511 59 61 C59 60.34 59 59.68 59 59 C58.01 58.67 57.02 58.34 56 58 C54.28641357 56.38161281 52.6292274 54.70328319 51 53 C49.8360061 51.83066668 48.66920565 50.66412215 47.5 49.5 C27 29 27 29 25.1953125 27.16015625 C17.83565567 19.11449419 17.83565567 19.11449419 8.96484375 13.08203125 C6.40138352 11.67034441 5.37939578 10.01555791 3.8125 7.5625 C3.30332031 6.78003906 2.79414062 5.99757813 2.26953125 5.19140625 C1 3 1 3 0 0 Z " fill="#040402" transform="translate(792,822)"/>
<path d="M0 0 C3.57846864 1.22707624 5.67035593 2.32764354 8 5.3125 C11.35702772 9.44883772 14.89906503 13.08255419 19 16.5 C22.65901074 19.54917562 25.96712046 22.6572566 28.875 26.4375 C30.66006653 28.59008023 32.30550223 30.16927723 34.4375 31.9375 C36.75287481 33.8604384 38.48989263 35.59038343 40.4375 37.9375 C42.43786472 40.32817979 44.21918102 42.13366103 46.5625 44.125 C53.25872435 49.82824811 59.30299543 56.24449852 65.46875 62.5078125 C67.81522192 64.81807344 70.21487276 67.04032249 72.65551758 69.24926758 C77.73486878 73.84964651 82.55680332 78.46963308 86.92578125 83.76953125 C88.74392047 85.72463011 90.58526323 87.41057457 92.60546875 89.1484375 C97.62621536 93.48150591 102.31040262 98.12650446 107 102.8125 C107.87011719 103.67037109 108.74023438 104.52824219 109.63671875 105.41210938 C110.45785156 106.23130859 111.27898437 107.05050781 112.125 107.89453125 C112.87007812 108.63550049 113.61515625 109.37646973 114.3828125 110.13989258 C116 112 116 112 116 114 C116.53625 114.226875 117.0725 114.45375 117.625 114.6875 C124.09723569 118.26426183 129.30288703 123.94273984 134 129.5625 C136.43195146 132.44227883 139.00554608 134.69657391 142 137 C143.68997323 138.64302953 145.35216394 140.31471312 147 142 C147.76441406 142.7425 148.52882813 143.485 149.31640625 144.25 C150.14011719 145.054375 150.96382812 145.85875 151.8125 146.6875 C152.60269531 147.45449219 153.39289063 148.22148438 154.20703125 149.01171875 C156 151 156 151 156 153 C156.99 153.33 157.98 153.66 159 154 C160.73131199 155.62511628 162.36117425 157.28430719 164 159 C165.46353184 160.48045327 166.92996523 161.9580408 168.3984375 163.43359375 C169.20796875 164.24763672 170.0175 165.06167969 170.8515625 165.90039062 C171.68429687 166.73763672 172.51703125 167.57488281 173.375 168.4375 C174.6125 169.68756836 174.6125 169.68756836 175.875 170.96289062 C180.42737258 175.53332818 185.05053661 179.86388791 190 184 C192.50053996 186.38423578 194.76889778 188.69956712 196.875 191.4375 C199.13157284 194.15866136 201.56217204 196.26868968 204.265625 198.52734375 C207.43172138 201.21567333 210.2852011 204.02991578 212.75 207.375 C214.87609751 209.8554471 216.89272048 211.4990814 219.5 213.4375 C223.27749412 216.28136956 225.42670423 219.01554203 228 223 C229.06235242 223.97881854 230.15865743 224.92117961 231.2734375 225.83984375 C235.17427849 229.18869969 238.81915802 232.73571868 242.44140625 236.37890625 C243.01699783 236.95772552 243.59258942 237.5365448 244.18562317 238.13290405 C245.97980807 239.94090593 247.77157997 241.75126434 249.5625 243.5625 C251.93579676 245.96263895 254.31256022 248.35926858 256.69140625 250.75390625 C257.22077286 251.2915712 257.75013947 251.82923615 258.29554749 252.38319397 C261.53953839 255.64802388 264.90078285 258.69984683 268.42808533 261.65684509 C271.5616871 264.33441574 274.36291919 267.17179494 276.875 270.4375 C279.13157284 273.15866136 281.56217204 275.26868968 284.265625 277.52734375 C287.43805168 280.22104838 290.28767808 283.06661265 292.8125 286.375 C295.27565121 289.33078145 297.99621522 291.67706134 300.9140625 294.171875 C304.09874275 296.96294309 307.03651562 299.97840809 310 303 C311.3303125 304.299375 311.3303125 304.299375 312.6875 305.625 C315 308 315 308 316.875 310.4375 C319.13586024 313.16383147 321.57158207 315.27717868 324.28125 317.5390625 C326.66152744 319.56229832 328.81823356 321.76501974 331 324 C335.31643641 328.4080805 339.67002886 332.64756443 344.390625 336.62109375 C346.74477353 338.63811907 348.90385108 340.71329209 351 343 C351 343.66 351 344.32 351 345 C306.40391409 345.183059 261.80786791 345.32405083 217.21148043 345.40852264 C211.94803387 345.41852844 206.68458804 345.42888301 201.42114258 345.43945312 C199.84933816 345.44260085 199.84933816 345.44260085 198.24578012 345.44581217 C181.27252888 345.48063507 164.29949412 345.54371839 147.32637136 345.61722237 C129.91398999 345.69200043 112.50172209 345.73646299 95.08918673 345.75270796 C84.34216294 345.76369215 73.595751 345.79839969 62.84891552 345.86333174 C55.48217982 345.90557752 48.11576101 345.91841043 40.74891292 345.90801102 C36.49659137 345.90288011 32.24533982 345.91081485 27.99320793 345.9536438 C24.09959969 345.99257544 20.20778069 345.99454628 16.31409008 345.96719116 C14.90613263 345.96381059 13.49806358 345.97396518 12.09032582 345.99906546 C1.55864143 346.17591942 1.55864143 346.17591942 -2.34637535 343.22977352 C-4.10205424 341.23506429 -5.55227664 339.22277213 -7 337 C-8.33955078 335.73229364 -9.70621817 334.49086064 -11.125 333.3125 C-14.25772968 330.69322601 -17.13163728 327.90759565 -20 325 C-21.2375 323.7625 -21.2375 323.7625 -22.5 322.5 C-25 320 -27.5 317.5 -30 315 C-30.80695313 314.19433594 -31.61390625 313.38867188 -32.4453125 312.55859375 C-34.2579176 310.74321708 -36.06501159 308.9233074 -37.8671875 307.09765625 C-44.13222718 300.70126838 -44.13222718 300.70126838 -50.8125 294.75 C-53.84902245 292.23526661 -56.2955025 289.41404478 -58.84375 286.4140625 C-63.17380572 281.56628273 -67.86684794 277.05699556 -72.49267578 272.4934082 C-73.91079017 271.08838623 -75.31525574 269.66962637 -76.71875 268.25 C-79.02169409 265.90288859 -79.02169409 265.90288859 -81.875 263.6875 C-84.14797193 261.82468841 -86.04208086 259.86944773 -87.9375 257.625 C-91.57486125 253.36246729 -95.48125639 249.40104565 -99.4375 245.4375 C-100.36840454 244.49994873 -100.36840454 244.49994873 -101.31811523 243.54345703 C-104.31975679 240.55085065 -107.35606194 237.66316911 -110.5859375 234.91796875 C-117.1249955 229.2682544 -123.10166955 223.00236928 -129.1875 216.875 C-130.45744687 215.60002588 -131.72762749 214.32528454 -132.99804688 213.05078125 C-135.3298159 210.7109066 -137.66023194 208.36970315 -139.98901367 206.02685547 C-140.49846527 205.51515808 -141.00791687 205.00346069 -141.5328064 204.47625732 C-142.92806287 203.07238153 -144.31829747 201.66351994 -145.70825195 200.25439453 C-148.04343948 197.8860779 -148.04343948 197.8860779 -151 195.5625 C-153.23008522 193.65763554 -154.88052054 192.04816228 -156.6875 189.8125 C-158.87671725 186.87245245 -158.87671725 186.87245245 -162 185 C-162 184.34 -162 183.68 -162 183 C-162.8353125 182.6596875 -162.8353125 182.6596875 -163.6875 182.3125 C-166.63723273 180.63832737 -168.6373884 178.42167689 -171 176 C-171.763125 175.46375 -172.52625 174.9275 -173.3125 174.375 C-173.869375 173.92125 -174.42625 173.4675 -175 173 C-175 170 -175 170 -173.57299805 168.49658203 C-172.91340088 167.96403809 -172.25380371 167.43149414 -171.57421875 166.8828125 C-166.71013471 162.8060224 -162.27341187 158.38452198 -157.8125 153.875 C-157.03197266 153.08996094 -156.25144531 152.30492187 -155.44726562 151.49609375 C-152.77816957 148.81115065 -150.11136342 146.12396273 -147.44946289 143.43188477 C-144.43330314 140.39308542 -141.37906034 137.62815804 -138 135 C-137.34 135 -136.68 135 -136 135 C-135.773125 134.443125 -135.54625 133.88625 -135.3125 133.3125 C-133.63283282 130.35308639 -131.43248148 128.37591214 -129 126 C-128.236875 125.05125 -127.47375 124.1025 -126.6875 123.125 C-124.06483707 119.9047683 -121.02201136 117.29611982 -117.86328125 114.61328125 C-115.85785564 112.92293366 -115.85785564 112.92293366 -113.625 110.5625 C-112 109 -112 109 -110 109 C-109.01 107.02 -109.01 107.02 -108 105 C-107.34 105 -106.68 105 -106 105 C-105.773125 104.4225 -105.54625 103.845 -105.3125 103.25 C-103.66800353 100.43086319 -101.5644533 98.98745131 -99 97 C-98.01 95.515 -98.01 95.515 -97 94 C-96.34 94 -95.68 94 -95 94 C-94.73832031 93.40058594 -94.47664062 92.80117188 -94.20703125 92.18359375 C-92.92779812 89.86938236 -91.73749558 88.70340555 -89.6875 87.0625 C-86.58120389 84.55652179 -83.81207855 81.83313996 -81 79 C-80.15783936 78.15260254 -79.31567871 77.30520508 -78.44799805 76.43212891 C-77.56152588 75.53929199 -76.67505371 74.64645508 -75.76171875 73.7265625 C-74.2534077 72.21086753 -72.7446095 70.69565937 -71.2355957 69.18066406 C-70.2079943 68.1480389 -69.18129286 67.11451732 -68.15551758 66.08007812 C-58.50847991 56.35405524 -58.50847991 56.35405524 -54.07421875 52.58203125 C-50.47553017 49.50736955 -47.14788367 46.20908776 -43.8203125 42.84765625 C-43.27641373 42.29825378 -42.73251495 41.74885132 -42.1721344 41.18280029 C-39.90836697 38.89124244 -37.64840301 36.59600817 -35.39257812 34.29663086 C-33.7269587 32.60099814 -32.05532413 30.91148699 -30.3828125 29.22265625 C-29.87138702 28.69777115 -29.35996155 28.17288605 -28.83303833 27.63209534 C-27.59282171 26.38304841 -26.30066105 25.18597483 -25 24 C-24.34 24 -23.68 24 -23 24 C-23 23.34 -23 22.68 -23 22 C-21.42578125 20.44921875 -21.42578125 20.44921875 -19.3125 18.6875 C-16.03323441 15.93933957 -13.0029077 13.04868373 -10 10 C-6.66666667 6.66666667 -3.33333333 3.33333333 0 0 Z " fill="#040402" transform="translate(778,462)"/>
<path d="M0 0 C1.02064797 -0.01147664 1.02064797 -0.01147664 2.0619151 -0.02318513 C4.3413299 -0.04381855 6.61973455 -0.03586736 8.8992157 -0.02792358 C10.53375684 -0.03661832 12.16828982 -0.04698479 13.80281067 -0.05889893 C18.24307655 -0.0857008 22.68300219 -0.08683373 27.12333322 -0.08177233 C30.83101177 -0.07963378 34.53862135 -0.08939766 38.24628514 -0.09898317 C46.99539381 -0.12118229 55.74433076 -0.12204424 64.49345398 -0.10995483 C73.51520905 -0.09788015 82.53633991 -0.12248195 91.55798846 -0.16509497 C99.30592552 -0.20034425 107.05366408 -0.21232683 114.80167836 -0.20581949 C119.42814197 -0.20219521 124.05416059 -0.2074503 128.68055153 -0.23524857 C133.03352916 -0.26042431 137.38553575 -0.25650169 141.73849869 -0.23042679 C143.33360944 -0.22569952 144.9287887 -0.23114991 146.52382088 -0.24767303 C160.07141499 -0.37786255 160.07141499 -0.37786255 164.58151245 3.42340088 C165.4963626 4.42667031 166.38274767 5.45733292 167.22612 6.52139282 C168.00987 7.28451782 168.79362 8.04764282 169.60112 8.83389282 C170.46737 9.72076782 171.33362 10.60764282 172.22612 11.52139282 C173.30727742 12.39488247 173.30727742 12.39488247 174.41027641 13.28601837 C179.13698854 17.35835601 181.77956902 20.33052856 182.36897278 26.66824341 C182.42204873 29.04253919 182.42625161 31.41825481 182.39067078 33.7928772 C182.40644165 35.09646683 182.42221252 36.40005646 182.4384613 37.7431488 C182.47924559 41.29553739 182.46369366 44.84555543 182.43504953 48.39798164 C182.41213241 52.12940603 182.43343139 55.86063847 182.44752502 59.59207153 C182.46386177 65.85647732 182.44242116 72.11992566 182.39945984 78.38418579 C182.35048251 85.60870449 182.36635094 92.83093703 182.41589749 100.05540037 C182.45684848 106.27752495 182.4624508 112.49896453 182.43894947 118.72118044 C182.42497628 122.42898774 182.42288143 126.13572328 182.45277786 129.84346008 C182.48380924 133.98030115 182.44071617 138.11325373 182.39067078 142.24990845 C182.40888885 143.46576126 182.42710693 144.68161407 182.44587708 145.93431091 C182.29859561 152.52278962 181.4488284 156.04048817 176.77833557 160.8508606 C172.66643634 164.52139282 172.66643634 164.52139282 170.22612 164.52139282 C170.22612 165.18139282 170.22612 165.84139282 170.22612 166.52139282 C169.56612 166.52139282 168.90612 166.52139282 168.22612 166.52139282 C168.22612 167.18139282 168.22612 167.84139282 168.22612 168.52139282 C166.60354532 170.26782816 164.9646066 171.89576677 163.22612 173.52139282 C162.67375671 174.04024048 162.12139343 174.55908813 161.55229187 175.09365845 C159.69869829 176.82517122 157.83794412 178.54873535 155.97612 180.27139282 C150.92565257 184.95901113 145.9845461 189.72148663 141.147995 194.63076782 C138.84324947 196.89803781 136.43055541 198.99049112 133.929245 201.03701782 C130.97804075 203.60916832 128.28477982 206.44119676 125.54594421 209.23574829 C123.71343608 211.10503581 121.8761193 212.96951265 120.03862 214.83389282 C119.41020203 215.4790686 118.78178406 216.12424438 118.13432312 216.78897095 C117.5316864 217.39805298 116.92904968 218.00713501 116.30815125 218.63467407 C115.76392517 219.18937378 115.2196991 219.74407349 114.65898132 220.31558228 C113.22612 221.52139282 113.22612 221.52139282 111.22612 221.52139282 C110.999245 222.09889282 110.77237 222.67639282 110.53862 223.27139282 C108.87850361 226.11730663 106.83424042 227.51981203 104.22612 229.52139282 C102.53889394 231.17084516 100.87834843 232.8372886 99.22612 234.52139282 C96.16856127 237.63047324 93.10486896 240.73338409 90.03862 243.83389282 C89.21942078 244.66984985 88.40022156 245.50580688 87.55619812 246.36709595 C86.77309265 247.15664673 85.98998718 247.94619751 85.18315125 248.75967407 C84.47134705 249.4819519 83.75954285 250.20422974 83.02616882 250.94839478 C81.22612 252.52139282 81.22612 252.52139282 79.22612 252.52139282 C78.88000671 253.37410767 78.88000671 253.37410767 78.52690125 254.24404907 C76.88548493 257.11775993 74.91348946 258.78089496 72.41362 260.95889282 C65.23624887 267.33217909 58.5269976 274.1638287 51.78935242 280.99575806 C47.28854465 285.53950684 42.75566113 289.93919969 37.85990906 294.05752563 C35.97543837 295.67484744 35.97543837 295.67484744 33.72612 298.52139282 C31.19744141 301.55580713 28.52695592 303.92105885 25.5308075 306.47061157 C22.81989368 308.88286539 20.27091239 311.4371938 17.72612 314.02139282 C14.53901898 317.25784675 11.31256392 320.38839997 7.85112 323.33389282 C5.51418404 325.32549209 3.71505275 327.13467351 1.72612 329.52139282 C-0.88395806 332.65348649 -3.67925214 335.14535235 -6.77778625 337.77529907 C-8.66690172 339.42781299 -10.40934657 341.15130918 -12.14888 342.95889282 C-14.77388 345.52139282 -14.77388 345.52139282 -16.77388 345.52139282 C-17.1141925 346.38764282 -17.1141925 346.38764282 -17.46138 347.27139282 C-19.12236222 350.11879091 -21.08912562 351.64206475 -23.77388 353.52139282 C-24.43388 353.52139282 -25.09388 353.52139282 -25.77388 353.52139282 C-26.11746101 311.08299591 -26.38164944 268.6447599 -26.53985995 226.20524689 C-26.5586198 221.19116045 -26.57803471 216.17707674 -26.59785461 211.16299438 C-26.60178927 210.16481078 -26.60572393 209.16662718 -26.60977782 208.13819559 C-26.67498959 191.99061049 -26.79322437 175.84382911 -26.93117195 159.69672029 C-27.07161004 143.11942093 -27.15479594 126.54254153 -27.18520743 109.96467173 C-27.20575665 99.74054089 -27.27057038 89.51868185 -27.39262701 79.29525067 C-27.47212344 72.27776069 -27.49583684 65.26143925 -27.47640067 58.24353205 C-27.46682153 54.19780927 -27.48114049 50.15604479 -27.56196213 46.11103249 C-28.04676088 20.61782529 -28.04676088 20.61782529 -22.46064949 13.56242752 C-19.425833 10.43951507 -16.15144397 7.93250169 -12.45630866 5.64080966 C-10.57123971 4.48798246 -10.57123971 4.48798246 -8.71952438 2.22718811 C-5.87829152 -0.26379209 -3.73350981 0.01257763 0 0 Z " fill="#030302" transform="translate(1168.7738800048828,455.4786071777344)"/>
<path d="M0 0 C0.1830665 42.68517201 0.32405462 85.37029878 0.40852264 128.05578551 C0.41852842 133.09391299 0.42888299 138.13203969 0.43945312 143.17016602 C0.44155161 144.17317641 0.44365009 145.1761868 0.44581217 146.20959144 C0.4806333 162.45536362 0.54371563 178.70090959 0.61722237 194.94654752 C0.69200539 211.6131201 0.73646404 228.27957412 0.75270796 244.9463076 C0.76369114 255.2327014 0.79839302 265.51845585 0.86333174 275.80465286 C0.90558368 282.85601985 0.91840906 289.90705579 0.90801102 296.95854021 C0.90288102 301.02860663 0.91080377 305.09755508 0.9536438 309.16742325 C0.99258941 312.89451871 0.99453795 316.61974524 0.96719116 320.34692692 C0.96221221 322.33215304 0.99671039 324.31735726 1.03265047 326.30226427 C0.91839001 334.79812245 0.91839001 334.79812245 -1.67001432 338.18551236 C-3.6992251 339.9417961 -5.80833384 341.45500575 -8 343 C-9.42821108 344.49316707 -9.42821108 344.49316707 -10.61779881 346.03924656 C-15.32285551 351.61586066 -18.93074432 354.66556001 -26.50608826 355.40354919 C-29.40954497 355.51183339 -32.30024857 355.48179818 -35.20483398 355.43920898 C-36.8126343 355.4557846 -38.42039229 355.47700907 -40.02807617 355.50248718 C-44.36577844 355.55658267 -48.70062629 355.54169684 -53.03845477 355.51051211 C-56.67159542 355.49116539 -60.3042365 355.50702991 -63.93736702 355.52301747 C-72.51415785 355.56060486 -81.08959068 355.5432284 -89.66625977 355.48901367 C-98.48840352 355.43401184 -107.30742212 355.46216893 -116.12938255 355.53302139 C-123.72913628 355.59165346 -131.32794064 355.60317577 -138.92787415 355.57643563 C-143.45588363 355.56066436 -147.98227013 355.56109233 -152.51012993 355.60497856 C-156.77082819 355.64382291 -161.02735249 355.62319273 -165.28769684 355.55851936 C-166.84195844 355.54436666 -168.39656413 355.55018382 -169.9506321 355.57850647 C-177.51466506 355.70436073 -183.47202957 355.2037751 -189.15120989 349.84413534 C-191.56119499 347.32502465 -193.77298351 344.68330792 -196 342 C-198.36519899 339.5818261 -200.71928731 337.24200132 -203.28117466 335.03340816 C-205.51826509 332.386881 -205.50047005 330.90194225 -205.50120544 327.46546936 C-205.51103958 326.33969986 -205.52087372 325.21393036 -205.53100586 324.05404663 C-205.52133789 322.823284 -205.51166992 321.59252136 -205.50170898 320.32446289 C-205.50711197 319.02493179 -205.51251495 317.7254007 -205.51808167 316.38648987 C-205.53204315 312.82435133 -205.5208615 309.26269544 -205.50437045 305.7005837 C-205.49051632 301.97131935 -205.49698055 298.24208292 -205.50050354 294.51280212 C-205.50320572 288.24909696 -205.48973067 281.9855834 -205.46655273 275.72192383 C-205.43995443 268.48391328 -205.43819211 261.24622334 -205.4499411 254.00818068 C-205.46072783 247.04241914 -205.45452406 240.07677339 -205.44038582 233.11102104 C-205.43463258 230.14820043 -205.43470349 227.18546474 -205.43945122 224.2226429 C-205.44511819 220.08322889 -205.42588462 215.94429189 -205.40405273 211.80493164 C-205.40855438 210.57619324 -205.41305603 209.34745483 -205.41769409 208.08148193 C-205.40778946 206.95289261 -205.39788483 205.82430328 -205.38768005 204.66151428 C-205.38525016 203.68315644 -205.38282026 202.7047986 -205.38031673 201.69679356 C-204.929313 198.49876448 -203.92234521 196.57729186 -202 194 C-201.34 194 -200.68 194 -200 194 C-199.61642334 193.10970093 -199.61642334 193.10970093 -199.22509766 192.20141602 C-197.87715201 189.77925063 -196.53462099 188.52666147 -194.3984375 186.77734375 C-189.09159662 182.28703216 -184.31139417 177.32933973 -179.47265625 172.34570312 C-178.79332031 171.65541016 -178.11398437 170.96511719 -177.4140625 170.25390625 C-176.50068115 169.31526733 -176.50068115 169.31526733 -175.56884766 168.35766602 C-174 167 -174 167 -172 167 C-171.773125 166.4225 -171.54625 165.845 -171.3125 165.25 C-169.66216522 162.42085466 -167.56741423 161.01725404 -165 159 C-163.64613064 157.34997172 -162.31321858 155.6825613 -161 154 C-157.76406154 150.6660028 -154.3975589 147.49394492 -150.98681641 144.34204102 C-145.25712239 139.04341888 -139.62542077 133.66484608 -134.12890625 128.125 C-133.63123245 127.62379135 -133.13355865 127.1225827 -132.62080383 126.60618591 C-130.13509179 124.09946678 -127.65728533 121.58539263 -125.18774414 119.06274414 C-124.2827417 118.14614014 -123.37773926 117.22953613 -122.4453125 116.28515625 C-121.63594238 115.45894775 -120.82657227 114.63273926 -119.99267578 113.78149414 C-118 112 -118 112 -116 112 C-115.505 110.515 -115.505 110.515 -115 109 C-113.48495483 107.50743103 -113.48495483 107.50743103 -111.52880859 105.90209961 C-106.59515901 101.7130135 -102.0817347 97.17186317 -97.5390625 92.56640625 C-95.7514316 90.76614742 -93.9636674 88.96602096 -92.17578125 87.16601562 C-89.38238196 84.34765321 -86.59043251 81.52787612 -83.80126953 78.70532227 C-81.0931722 75.9672085 -78.37904261 73.23519298 -75.6640625 70.50390625 C-74.40476425 69.22441856 -74.40476425 69.22441856 -73.12002563 67.91908264 C-72.34516815 67.14084641 -71.57031067 66.36261017 -70.77197266 65.56079102 C-70.08994781 64.87130875 -69.40792297 64.18182648 -68.70523071 63.47145081 C-67 62 -67 62 -65 62 C-65 61.34 -65 60.68 -65 60 C-64.34 60 -63.68 60 -63 60 C-63 59.34 -63 58.68 -63 58 C-61.53125 56.5546875 -61.53125 56.5546875 -59.5 54.875 C-54.50442161 50.6336386 -49.84632767 46.07486493 -45.39453125 41.265625 C-44 40 -44 40 -42 40 C-41.74025391 39.41573242 -41.48050781 38.83146484 -41.21289062 38.22949219 C-39.915344 35.84438836 -38.50658878 34.24809363 -36.59375 32.328125 C-35.60181641 31.33232422 -35.60181641 31.33232422 -34.58984375 30.31640625 C-33.90019531 29.63449219 -33.21054687 28.95257812 -32.5 28.25 C-31.81035156 27.55261719 -31.12070312 26.85523438 -30.41015625 26.13671875 C-29.41822266 25.14865234 -29.41822266 25.14865234 -28.40625 24.140625 C-27.80103516 23.53766602 -27.19582031 22.93470703 -26.57226562 22.31347656 C-25 21 -25 21 -23 21 C-23 20.34 -23 19.68 -23 19 C-21.671875 17.6953125 -21.671875 17.6953125 -19.75 16.125 C-15.24523527 12.32939323 -11.17123151 8.18680543 -7.12597656 3.91259766 C-3.32673338 0 -3.32673338 0 0 0 Z " fill="#030302" transform="translate(780,823)"/>
<path d="M0 0 C90.39930556 0 90.39930556 0 107 14 C107.70511719 14.5775 108.41023437 15.155 109.13671875 15.75 C117.3886738 23.19644967 121.48730614 33.32823558 122.21484375 44.21484375 C122.61191032 58.58865351 119.73228296 70.49016903 109.90234375 81.30859375 C108 83 108 83 106 83 C106 83.66 106 84.32 106 85 C100.16928099 89.74654904 93.75366671 92.81829011 86.625 95.0625 C83.85679314 95.70982592 83.85679314 95.70982592 83 98 C83.89332031 98.36351562 83.89332031 98.36351562 84.8046875 98.734375 C87.4354251 100.25102799 88.45825253 101.72056414 90.125 104.25 C90.73085938 105.14847656 91.33671875 106.04695313 91.9609375 106.97265625 C92.63382813 107.97167969 93.30671875 108.97070312 94 110 C95.57599841 112.23490559 97.15766775 114.46433764 98.75 116.6875 C99.38156006 117.57163574 99.38156006 117.57163574 100.02587891 118.47363281 C103.6009644 123.46829669 107.23342256 128.41975872 110.8737793 133.36694336 C114.13538871 137.8053085 117.36153389 142.26770875 120.5625 146.75 C120.98015625 147.33458984 121.3978125 147.91917969 121.828125 148.52148438 C127 155.78100991 127 155.78100991 127 159 C117.76 159 108.52 159 99 159 C97.68 156.69 96.36 154.38 95 152 C94.16635734 150.76425784 93.30965534 149.54317159 92.4140625 148.3515625 C91.96144043 147.7436084 91.50881836 147.1356543 91.04248047 146.50927734 C90.57471191 145.88746582 90.10694336 145.2656543 89.625 144.625 C86.1316807 139.92241058 82.72090035 135.20502589 79.51953125 130.296875 C77.96099499 127.94104127 76.35396271 125.62210409 74.73657227 123.30639648 C62 105.06626897 62 105.06626897 62 102 C61.34 102 60.68 102 60 102 C59.67 101.34 59.34 100.68 59 100 C47.78 99.67 36.56 99.34 25 99 C25 118.8 25 138.6 25 159 C16.75 159 8.5 159 0 159 C0 106.53 0 54.06 0 0 Z " fill="#080908" transform="translate(561,1300)"/>
<path d="M0 0 C8.58 0 17.16 0 26 0 C29.25383665 6.50767331 32.28698109 12.82677763 34.9375 19.5625 C35.27813477 20.41875977 35.61876953 21.27501953 35.96972656 22.15722656 C38.45765508 28.46915019 40.77891438 34.8303262 42.92163086 41.26782227 C44.32112466 45.39344049 46.02952506 49.21145366 48.02294922 53.08447266 C51.84682722 60.58126096 54.86072293 68.35809633 57.375 76.375 C59.35871331 82.53595575 61.92109596 88.06528677 64.90869141 93.79492188 C68.6186228 101.00159031 71.44563996 108.5048673 74.28320312 116.08789062 C76.26217701 121.36695175 78.36084128 126.58507642 80.65625 131.734375 C90 152.69589608 90 152.69589608 90 159 C81.42 159 72.84 159 64 159 C57.79583827 145.90232524 57.79583827 145.90232524 55.7890625 139.3984375 C54.38579942 135.13307348 52.6579818 130.98717582 50.98828125 126.8203125 C50 124 50 124 50 121 C25.91 121.33 1.82 121.66 -23 122 C-24.98 127.28 -26.96 132.56 -29 138 C-31.3125 143.8125 -31.3125 143.8125 -32.23828125 146.08203125 C-32.88101498 147.70040182 -33.44934312 149.34802937 -34 151 C-34.66 151 -35.32 151 -36 151 C-36.144375 152.134375 -36.28875 153.26875 -36.4375 154.4375 C-37 158 -37 158 -38 159 C-39.85369611 159.08737645 -41.71067541 159.10698153 -43.56640625 159.09765625 C-44.69111328 159.09443359 -45.81582031 159.09121094 -46.97460938 159.08789062 C-48.15861328 159.07951172 -49.34261719 159.07113281 -50.5625 159.0625 C-51.75037109 159.05798828 -52.93824219 159.05347656 -54.16210938 159.04882812 C-57.10812226 159.03699675 -60.05403681 159.02051287 -63 159 C-62.36697812 155.68970208 -61.60727364 152.73901256 -60.3125 149.625 C-58.76973885 145.87749291 -57.25914521 142.12032652 -55.77758789 138.34814453 C-53.70410225 133.08663403 -51.55155191 127.94506818 -48.921875 122.93359375 C-47.81370721 120.60925876 -46.97576394 118.24275602 -46.125 115.8125 C-44.62446802 111.5362804 -42.87385934 107.47243199 -40.9375 103.375 C-38.56129599 98.32407388 -36.61567239 93.33570821 -35 88 C-32.93053092 81.26783824 -30.28930712 74.87871733 -27.4765625 68.421875 C-26.24513365 65.5680875 -25.07095222 62.70602844 -23.9375 59.8125 C-22.60943682 56.44042188 -21.16128579 53.15728678 -19.625 49.875 C-17.17789079 44.58171454 -15.16733888 39.17317856 -13.16503906 33.70166016 C-11.65855995 29.62754038 -9.97312 25.80954456 -7.93359375 21.984375 C-6.28886544 18.48846712 -5.19176652 14.80317664 -4.02734375 11.125 C-2.79565617 7.3784218 -1.38477595 3.69273586 0 0 Z " fill="#070707" transform="translate(1271,1300)"/>
<path d="M0 0 C33.33 0 66.66 0 101 0 C101 7.26 101 14.52 101 22 C75.59 22 50.18 22 24 22 C24 36.52 24 51.04 24 66 C47.43 66 70.86 66 95 66 C95 73.26 95 80.52 95 88 C71.57 88 48.14 88 24 88 C24 103.51 24 119.02 24 135 C50.73 135 77.46 135 105 135 C105 142.59 105 150.18 105 158 C70.35 158 35.7 158 0 158 C0 105.86 0 53.72 0 0 Z " fill="#080808" transform="translate(721,1301)"/>
<path d="M0 0 C8.91 0 17.82 0 27 0 C26 4 26 4 24.625 6.5 C22.75125403 10.53576054 21.86138997 14.46514166 20.94140625 18.8046875 C20.17419562 21.40874683 19.362501 23.37536014 18.125 25.75 C15.71770572 30.37936966 14.08574825 35.18395918 12.4375 40.125 C10.59187582 45.63322647 8.68736396 50.83258301 6 56 C5.52659639 57.29998135 5.08579045 58.61257464 4.6875 59.9375 C3.34146798 64.14562116 1.73042802 68.22401719 0.0625 72.3125 C-1.71978488 76.6916128 -3.39085276 81.04974822 -4.8125 85.5625 C-7.09796017 92.68258745 -10.03213478 99.54180417 -12.9152832 106.43579102 C-13.29773193 107.35416748 -13.68018066 108.27254395 -14.07421875 109.21875 C-14.42057373 110.04310547 -14.76692871 110.86746094 -15.1237793 111.71679688 C-15.92349438 113.80064628 -16.51444415 115.8242102 -17 118 C-17.66 118 -18.32 118 -19 118 C-19.20625 119.155 -19.4125 120.31 -19.625 121.5 C-21.11583979 128.22463907 -23.72478765 134.56985284 -26.21533203 140.97216797 C-26.96739493 142.9157381 -27.70347629 144.86450117 -28.43359375 146.81640625 C-28.86800781 147.97011719 -29.30242187 149.12382813 -29.75 150.3125 C-30.13671875 151.33988281 -30.5234375 152.36726563 -30.921875 153.42578125 C-32 156 -32 156 -34 159 C-36.52197266 159.34057617 -36.52197266 159.34057617 -39.6640625 159.29296875 C-40.78554687 159.28330078 -41.90703125 159.27363281 -43.0625 159.26367188 C-44.238125 159.23853516 -45.41375 159.21339844 -46.625 159.1875 C-47.80835938 159.17396484 -48.99171875 159.16042969 -50.2109375 159.14648438 C-53.14107539 159.11103916 -56.07031459 159.06162769 -59 159 C-59.32613281 157.9378125 -59.65226562 156.875625 -59.98828125 155.78125 C-60.88782175 152.86636626 -61.79287707 149.95330441 -62.70703125 147.04296875 C-62.9181958 146.37031982 -63.12936035 145.6976709 -63.34692383 145.00463867 C-64.44885026 141.62223943 -65.69036218 138.30651133 -67 135 C-67.70872246 133.14598204 -68.41699725 131.29179292 -69.125 129.4375 C-70.78432871 125.11517567 -72.47179889 120.80573391 -74.18359375 116.50390625 C-77.81851055 107.34355438 -81.37186543 98.28069438 -84.12109375 88.8125 C-85.35131988 84.87577638 -86.95791303 81.13950592 -88.58203125 77.3515625 C-102 45.63636364 -102 45.63636364 -102 38 C-102.66 38 -103.32 38 -104 38 C-104.22042969 37.23042969 -104.22042969 37.23042969 -104.4453125 36.4453125 C-106.45327306 29.59055059 -108.70756952 22.8284269 -111.01806641 16.07080078 C-113 10.21491759 -113 10.21491759 -113 8 C-113.66 8 -114.32 8 -115 8 C-115.33 5.69 -115.66 3.38 -116 1 C-107.09 1 -98.18 1 -89 1 C-84.4789916 11.17226891 -84.4789916 11.17226891 -83.25 16.375 C-83.00765625 17.37273437 -82.7653125 18.37046875 -82.515625 19.3984375 C-82 22 -82 22 -82 25 C-81.34 25 -80.68 25 -80 25 C-79.72027344 25.92296875 -79.44054688 26.8459375 -79.15234375 27.796875 C-76.73636905 35.68317473 -74.15072864 43.48266194 -71.375 51.25 C-69.51243031 56.46519512 -67.74876386 61.58145281 -66.5625 67 C-65.08815394 73.48712268 -62.50087004 79.49295562 -59.98388672 85.62988281 C-57.69771254 91.21030797 -55.62856073 96.80353474 -53.79296875 102.55078125 C-53.09292507 104.71298512 -52.32491067 106.82066574 -51.5 108.9375 C-49.3550384 114.51914042 -47.71883112 120.27637962 -46 126 C-43.01477553 121.59324007 -41.5836653 117.02206434 -40 112 C-36.21601839 100.72209533 -32.10917399 89.56633588 -27.90509033 78.43963623 C-20.58262731 59.05954418 -13.76097728 39.52790237 -7.29370117 19.8449707 C-5.08175117 13.13490801 -2.62479519 6.56198798 0 0 Z " fill="#070707" transform="translate(1185,1300)"/>
<path d="M0 0 C8.58 0 17.16 0 26 0 C30.38374162 10.76009306 34.70966253 21.4116196 37.37890625 32.75 C39.42968533 40.17923743 42.30424064 47.41292635 45.3125 54.5 C46.80585412 58.1344281 47.41896229 61.01985824 47 65 C47.66 65 48.32 65 49 65 C49.22139648 65.73524902 49.44279297 66.47049805 49.67089844 67.22802734 C50.6926636 70.61176058 51.72128512 73.99337342 52.75 77.375 C53.09804688 78.53128906 53.44609375 79.68757813 53.8046875 80.87890625 C55.63805459 86.88827615 57.62282309 92.73334196 60.02246094 98.53857422 C61.82400472 103.07482907 63.27569025 107.72428042 64.75 112.375 C65.06582031 113.34566406 65.38164063 114.31632812 65.70703125 115.31640625 C66.15369141 116.71826172 66.15369141 116.71826172 66.609375 118.1484375 C66.87717773 118.98552246 67.14498047 119.82260742 67.42089844 120.68505859 C68 123 68 123 68 127 C68.66 127 69.32 127 70 127 C70.0825 126.21625 70.165 125.4325 70.25 124.625 C70.85693961 121.69145854 71.55142787 119.47468751 72.6875 116.75 C74.70632456 111.90482106 76.36994926 106.98531525 78 102 C79.83302445 96.41320579 81.74667515 90.9167154 84.00390625 85.484375 C85.73328713 81.17109563 87.2275327 76.77226928 88.7734375 72.390625 C89.82717616 69.47774233 90.94540351 66.61344796 92.125 63.75 C93.75051328 59.76781887 95.03760627 55.7594011 96.19140625 51.6171875 C97.0657429 48.78720897 98.09358025 46.03026281 99.14575195 43.26220703 C100.74595263 39.02457928 102.27056232 34.75909401 103.8125 30.5 C106.55844948 22.92810638 109.33632177 15.3698796 112.18481445 7.8359375 C113.16742234 5.23522505 114.12067768 2.63796696 115 0 C123.25 0 131.5 0 140 0 C138.60787778 7.65667223 137.33945603 13.41072949 134.25 20.25 C133.532872 21.89670804 132.81673834 23.54384943 132.1015625 25.19140625 C131.74739258 25.99852051 131.39322266 26.80563477 131.02832031 27.63720703 C125.62150594 40.02032201 125.62150594 40.02032201 122 53 C121.34 53 120.68 53 120 53 C119.87044922 53.87398437 119.87044922 53.87398437 119.73828125 54.765625 C118.69901143 60.82962139 116.8309371 66.02106654 114.36328125 71.640625 C112.53746814 76.13976332 111.14350364 80.73364819 109.7878418 85.39306641 C108.56256848 89.5194841 106.98731588 93.18878148 105 97 C104.33290699 98.59544298 103.68578855 100.19943993 103.0625 101.8125 C101.76943798 105.1219461 100.38685696 108.34769635 98.875 111.5625 C96.89715826 115.92309596 95.84439644 120.30026721 95 125 C94.34 125 93.68 125 93 125 C92.90332031 125.80824219 92.80664062 126.61648438 92.70703125 127.44921875 C91.83947629 131.80616603 90.33500987 135.69890618 88.6875 139.8125 C88.24374023 140.94655273 88.24374023 140.94655273 87.79101562 142.10351562 C85.66851927 147.48081201 83.35409497 152.70328631 81 158 C72.42 158 63.84 158 55 158 C54.01 154.04 53.02 150.08 52 146 C51.16634714 143.70561026 50.27745102 141.42983604 49.3125 139.1875 C46.12793844 131.5880948 43.45424952 123.831457 40.80395508 116.03198242 C39.46068191 112.10068987 38.10370042 108.24170379 36.46484375 104.421875 C34.61898184 100.10994159 33.19474682 95.70922287 31.75 91.25 C29.34565676 83.9344922 26.84836115 76.6638684 24.1875 69.4375 C23.8977832 68.64698242 23.60806641 67.85646484 23.30957031 67.04199219 C21.78307501 62.91751391 21.78307501 62.91751391 19.94970703 58.92407227 C18.75411637 56.50184862 18.2652642 54.13715684 17.6875 51.5 C16.36008365 45.97471368 14.45509202 40.94528612 12.19140625 35.7421875 C10.93737246 32.85585398 9.82841627 29.94173762 8.74609375 26.98828125 C7.87303014 24.6616353 6.93692163 22.36414521 6 20.0625 C3.3205902 13.37937441 1.18748996 7.12493975 0 0 Z " fill="#070707" transform="translate(843,1301)"/>
<path d="M0 0 C7.92 0 15.84 0 24 0 C24 52.47 24 104.94 24 159 C16.08 159 8.16 159 0 159 C0 106.53 0 54.06 0 0 Z " fill="#060606" transform="translate(1014,1300)"/>
<path d="M0 0 C11.1375 -0.0309375 11.1375 -0.0309375 22.5 -0.0625 C24.82869141 -0.071604 27.15738281 -0.08070801 29.55664062 -0.09008789 C31.4231765 -0.09301127 33.28971302 -0.09555883 35.15625 -0.09765625 C36.10854492 -0.10277222 37.06083984 -0.10788818 38.04199219 -0.11315918 C43.45837679 -0.11386078 48.64103369 0.2033224 54 1 C54 1.66 54 2.32 54 3 C54.70125 3.0825 55.4025 3.165 56.125 3.25 C63.29941051 5.12158535 67.06435919 10.09653879 71 16 C71.93350826 20.22159785 72.16223178 24.30918829 72.1875 28.625 C72.20167969 29.73101563 72.21585938 30.83703125 72.23046875 31.9765625 C72.00761948 34.9000427 71.52134128 36.53458529 70 39 C69.34 39 68.68 39 68 39 C67.896875 39.7425 67.79375 40.485 67.6875 41.25 C66.95066203 44.1973519 66.05200858 45.78383074 64 48 C63.34 48 62.68 48 62 48 C61.67 48.99 61.34 49.98 61 51 C50.50907279 57.62731804 35.49561236 55.42466169 23.75 55.25 C15.9125 55.1675 8.075 55.085 0 55 C0 36.85 0 18.7 0 0 Z " fill="#FAFAFA" transform="translate(586,1322)"/>
<path d="M0 0 C3.05473924 3.05473924 3.65306963 6.88551034 4.90234375 10.95703125 C5.98136404 13.94833662 7.34721028 16.29505843 9 19 C11.11962469 23.62561134 12.78816687 28.27437293 14.3125 33.125 C16.31771693 39.35262865 18.79594444 45.20962751 21.66796875 51.09765625 C23.01069999 54.02331406 24.02831738 56.93325484 25 60 C25.28101563 60.80824219 25.56203125 61.61648438 25.8515625 62.44921875 C26.10679688 63.18785156 26.36203125 63.92648437 26.625 64.6875 C27.01558594 65.80705078 27.01558594 65.80705078 27.4140625 66.94921875 C28 69 28 69 28 72 C9.19 72 -9.62 72 -29 72 C-26.10625376 63.31876129 -23.07973494 54.85456187 -18.8125 46.75 C-16.83384225 42.91982717 -15.94903828 39.20288383 -15 35 C-14.354876 32.99294757 -13.69643985 30.98982813 -13 29 C-12.34 29 -11.68 29 -11 29 C-10.88785156 28.15179687 -10.77570313 27.30359375 -10.66015625 26.4296875 C-9.95547316 22.76867123 -8.81488848 19.58613003 -7.4375 16.125 C-6.98246094 14.97257812 -6.52742188 13.82015625 -6.05859375 12.6328125 C-5.70925781 11.76398438 -5.35992188 10.89515625 -5 10 C-4.34 10 -3.68 10 -3 10 C-2.86722656 9.36191406 -2.73445313 8.72382812 -2.59765625 8.06640625 C-2.42105469 7.24011719 -2.24445313 6.41382813 -2.0625 5.5625 C-1.80146484 4.32693359 -1.80146484 4.32693359 -1.53515625 3.06640625 C-1 1 -1 1 0 0 Z " fill="#F6F6F5" transform="translate(1284,1329)"/>
<path d="M0 0 C0 3 0 3 -2.40625 5.59375 C-3.95362402 7.06877926 -5.52153114 8.51994408 -7.08984375 9.97265625 C-8.44418567 11.26367829 -9.72744839 12.62828853 -11 14 C-11 14.99 -11 15.98 -11 17 C-11.5775 17.061875 -12.155 17.12375 -12.75 17.1875 C-15.92448483 18.33384174 -17.12848575 20.25956842 -19 23 C-19 23.66 -19 24.32 -19 25 C-19.598125 25.061875 -20.19625 25.12375 -20.8125 25.1875 C-23.22157495 25.82183655 -23.22157495 25.82183655 -24.375 28.3125 C-26.39357194 31.65090743 -28.72076166 32.95047604 -32 35 C-33.79394446 36.62351109 -33.79394446 36.62351109 -35 38 C-35.66 37.34 -36.32 36.68 -37 36 C-32.91292695 31.86361198 -28.81942122 27.73374208 -24.71972656 23.60986328 C-23.32501851 22.20507692 -21.93210796 20.79850363 -20.54101562 19.39013672 C-18.54502969 17.36998287 -16.5427381 15.35627344 -14.5390625 13.34375 C-13.91504547 12.7094104 -13.29102844 12.0750708 -12.64810181 11.42150879 C-11.1362251 9.90923861 -9.57260348 8.4490171 -8 7 C-7.34 7 -6.68 7 -6 7 C-6 6.34 -6 5.68 -6 5 C-5.34 5 -4.68 5 -4 5 C-4 4.34 -4 3.68 -4 3 C-2 1.375 -2 1.375 0 0 Z " fill="#292928" transform="translate(721,878)"/>
<path d="M0 0 C0.66 0.66 1.32 1.32 2 2 C1.45730469 2.45890625 0.91460938 2.9178125 0.35546875 3.390625 C-0.35996094 4.00421875 -1.07539062 4.6178125 -1.8125 5.25 C-2.52019531 5.85328125 -3.22789062 6.4565625 -3.95703125 7.078125 C-5.92433767 8.92882243 -7.42468152 10.81531764 -9 13 C-11 15 -11 15 -13.4375 16.875 C-16.00971311 18.83361661 -16.00971311 18.83361661 -17.5625 21.125 C-19.20433322 23.26652159 -20.61968291 23.80984146 -23 25 C-24.01241685 26.32392972 -25.01439389 27.65599167 -26 29 C-26.66 29 -27.32 29 -28 29 C-28 26 -28 26 -26.57958984 24.50537109 C-25.59273193 23.70993896 -25.59273193 23.70993896 -24.5859375 22.8984375 C-19.63657624 18.75179327 -15.1503687 14.22492173 -10.625 9.625 C-9.03616475 8.01074338 -7.44513097 6.39864674 -5.8515625 4.7890625 C-5.15885254 4.08475098 -4.46614258 3.38043945 -3.75244141 2.65478516 C-2 1 -2 1 0 0 Z " fill="#343434" transform="translate(631,606)"/>
<path d="M0 0 C0 3 0 3 -1.25341797 4.59399414 C-1.82721191 5.15207764 -2.40100586 5.71016113 -2.9921875 6.28515625 C-3.61480469 6.89810547 -4.23742188 7.51105469 -4.87890625 8.14257812 C-5.53761719 8.77615234 -6.19632813 9.40972656 -6.875 10.0625 C-7.85146484 11.01866211 -7.85146484 11.01866211 -8.84765625 11.99414062 C-10.05769581 13.17798345 -11.27077998 14.35872756 -12.48779297 15.53540039 C-13.66906695 16.67948541 -14.83717182 17.83717182 -16 19 C-16.66 18.34 -17.32 17.68 -18 17 C-16.54782324 15.49403892 -15.08807139 13.99537896 -13.625 12.5 C-12.81289062 11.6646875 -12.00078125 10.829375 -11.1640625 9.96875 C-9 8 -9 8 -7 8 C-7 7.34 -7 6.68 -7 6 C-5.46875 4.4921875 -5.46875 4.4921875 -3.5 2.875 C-2.8503125 2.33617187 -2.200625 1.79734375 -1.53125 1.2421875 C-1.0259375 0.83226562 -0.520625 0.42234375 0 0 Z " fill="#CACACA" transform="translate(1199,1118)"/>
<path d="M0 0 C0.66 0 1.32 0 2 0 C0.68822142 2.9262753 -0.75289234 4.75289234 -3 7 C-3.309375 7.680625 -3.61875 8.36125 -3.9375 9.0625 C-5.26558376 11.48429981 -6.51466988 11.91266807 -9 13 C-9.66 13.66 -10.32 14.32 -11 15 C-11.99 14.67 -12.98 14.34 -14 14 C-13.01 13.67 -12.02 13.34 -11 13 C-9.79117904 10.99983534 -9.79117904 10.99983534 -9 9 C-8.34 9 -7.68 9 -7 9 C-6.34 7.68 -5.68 6.36 -5 5 C-4.34 5 -3.68 5 -3 5 C-2.690625 4.360625 -2.38125 3.72125 -2.0625 3.0625 C-1 1 -1 1 0 0 Z " fill="#D8D8D8" transform="translate(1179,775)"/>
<path d="M0 0 C8.58 0 17.16 0 26 0 C26 0.33 26 0.66 26 1 C25.38479492 1.0093457 24.76958984 1.01869141 24.13574219 1.02832031 C21.33968914 1.08211085 18.5452938 1.16573819 15.75 1.25 C14.78191406 1.26417969 13.81382812 1.27835938 12.81640625 1.29296875 C7.15950014 1.39315736 7.15950014 1.39315736 2.328125 4.046875 C1.67070313 5.01367188 1.67070313 5.01367188 1 6 C0.67 4.02 0.34 2.04 0 0 Z " fill="#242424" transform="translate(843,1301)"/>
<path d="M0 0 C0.99 0.33 1.98 0.66 3 1 C-2.26385224 7.66754617 -2.26385224 7.66754617 -4.9375 8.875 C-7.37142338 10.20259457 -8.37981335 11.79065456 -10 14 C-10.66 14 -11.32 14 -12 14 C-12 11 -12 11 -10.390625 9.31640625 C-9.68421875 8.73761719 -8.9778125 8.15882813 -8.25 7.5625 C-5.36411291 5.14736045 -2.6096521 2.71838761 0 0 Z " fill="#3B3C3A" transform="translate(615,621)"/>
<path d="M0 0 C0 3 0 3 -2.125 5.25 C-3.07375 6.1575 -4.0225 7.065 -5 8 C-7.04096475 10.29907271 -9.02461274 12.64446949 -11 15 C-12.32 14.67 -13.64 14.34 -15 14 C-14.0409375 13.5978125 -14.0409375 13.5978125 -13.0625 13.1875 C-10.66868314 12.11332248 -10.66868314 12.11332248 -10 9 C-8.22265625 7.24609375 -8.22265625 7.24609375 -6.0625 5.4375 C-3.96656037 3.66869432 -1.94005112 1.94005112 0 0 Z " fill="#D3D3D3" transform="translate(1311,648)"/>
<path d="M0 0 C-1.43590972 3.42062263 -3.19810023 5.23874919 -6.0625 7.5625 C-9.33584139 10.18282506 -9.33584139 10.18282506 -11 14 C-12.32 13.67 -13.64 13.34 -15 13 C-13.0364501 11.0364501 -11.07249804 9.0733476 -9.10546875 7.11328125 C-7.8681148 5.87133601 -6.63806399 4.62189811 -5.42578125 3.35546875 C-2.20569164 0 -2.20569164 0 0 0 Z " fill="#313131" transform="translate(727,513)"/>
<path d="M0 0 C0.33 0.66 0.66 1.32 1 2 C1.66 2 2.32 2 3 2 C3 2.66 3 3.32 3 4 C9.93 4 16.86 4 24 4 C24 4.33 24 4.66 24 5 C15.75 5 7.5 5 -1 5 C-0.67 3.35 -0.34 1.7 0 0 Z " fill="#252525" transform="translate(1209,1454)"/>
<path d="M0 0 C1 4 1 4 1 6 C-1.06942576 8.5867822 -2.75728494 9.4409112 -6 10 C-6.33 9.01 -6.66 8.02 -7 7 C-4.69 4.69 -2.38 2.38 0 0 Z " fill="#1F1F1E" transform="translate(598,998)"/>
<path d="M0 0 C0 4.45566993 -2.64308265 6.47346798 -5.5 9.6875 C-7.24072437 11.21063382 -8.84297578 12.16502288 -11 13 C-11.66 12.67 -12.32 12.34 -13 12 C-8.84792208 7.7373638 -4.63678779 3.73204871 0 0 Z " fill="#CBCBCB" transform="translate(1164,1152)"/>
<path d="M0 0 C0.99 0.66 1.98 1.32 3 2 C3.1875 5.625 3.1875 5.625 3 9 C0.69 7.02 -1.62 5.04 -4 3 C-2.68 2.01 -1.36 1.02 0 0 Z " fill="#202021" transform="translate(815,840)"/>
<path d="M0 0 C0.66 0.33 1.32 0.66 2 1 C-0.64 4.3 -3.28 7.6 -6 11 C-7.32 10.67 -8.64 10.34 -10 10 C-9.38125 9.7525 -8.7625 9.505 -8.125 9.25 C-5.57496075 7.74997691 -5.23777652 6.6302751 -4 4 C-2.70529025 2.62913085 -1.37849103 1.28659163 0 0 Z " fill="#C8C8C8" transform="translate(1206,749)"/>
<path d="M0 0 C0.93065133 2.60582371 1.14917407 3.64198224 0.0625 6.25 C-0.4634375 7.11625 -0.4634375 7.11625 -1 8 C-2.98 8 -4.96 8 -7 8 C-6.02133662 6.85373678 -5.04205413 5.70800212 -4.0625 4.5625 C-3.51722656 3.92441406 -2.97195313 3.28632812 -2.41015625 2.62890625 C-1.63204305 1.73008851 -0.84063472 0.84063472 0 0 Z " fill="#272727" transform="translate(646,951)"/>
<path d="M0 0 C0.66 0 1.32 0 2 0 C2.33 0.99 2.66 1.98 3 3 C3.99 3.66 4.98 4.32 6 5 C5.34 6.65 4.68 8.3 4 10 C3.34 9.67 2.68 9.34 2 9 C1.3671875 6.93359375 1.3671875 6.93359375 0.875 4.4375 C0.70742187 3.61121094 0.53984375 2.78492188 0.3671875 1.93359375 C0.24601562 1.29550781 0.12484375 0.65742187 0 0 Z " fill="#D8D8D8" transform="translate(1136,1417)"/>
<path d="M0 0 C0 3 0 3 -1.75 4.82421875 C-2.4925 5.43910156 -3.235 6.05398438 -4 6.6875 C-4.7425 7.31011719 -5.485 7.93273437 -6.25 8.57421875 C-6.8275 9.04472656 -7.405 9.51523437 -8 10 C-8.66 9.67 -9.32 9.34 -10 9 C-9.01 8.67 -8.02 8.34 -7 8 C-6.71125 7.401875 -6.4225 6.80375 -6.125 6.1875 C-4.64462682 3.30899659 -2.57721429 1.89900001 0 0 Z " fill="#3B3B3B" transform="translate(615,982)"/>
<path d="M0 0 C0.33 0.66 0.66 1.32 1 2 C-1.3833861 5.14947449 -3.55084975 7.9972676 -7 10 C-7.99 9.67 -8.98 9.34 -10 9 C-6.7 6.03 -3.4 3.06 0 0 Z " fill="#CECECE" transform="translate(1218,738)"/>
<path d="M0 0 C0.66 0.33 1.32 0.66 2 1 C2 1.66 2 2.32 2 3 C3.65 3.33 5.3 3.66 7 4 C6.67 4.66 6.34 5.32 6 6 C3.6875 6.25 3.6875 6.25 1 6 C-0.8125 4 -0.8125 4 -2 2 C-1.34 2 -0.68 2 0 2 C0 1.34 0 0.68 0 0 Z " fill="#1B1B1B" transform="translate(1028,1053)"/>
<path d="M0 0 C0.66 0.33 1.32 0.66 2 1 C0.92807816 2.3218362 -0.15802695 3.63217927 -1.25 4.9375 C-1.85328125 5.66839844 -2.4565625 6.39929688 -3.078125 7.15234375 C-5.10741134 9.10326334 -6.254407 9.61731779 -9 10 C-8.67 9.34 -8.34 8.68 -8 8 C-7.34 8 -6.68 8 -6 8 C-5.7525 7.4225 -5.505 6.845 -5.25 6.25 C-3.83316683 3.6997003 -2.12372463 1.98214299 0 0 Z " fill="#383838" transform="translate(689,548)"/>
<path d="M0 0 C1.875 0.3125 1.875 0.3125 4 1 C4.66 1.99 5.32 2.98 6 4 C4.125 5.0625 4.125 5.0625 2 6 C1.34 5.67 0.68 5.34 0 5 C0 3.35 0 1.7 0 0 Z " fill="#0F0F0D" transform="translate(1250,930)"/>
<path d="M0 0 C0 3 0 3 -1.6875 5.0625 C-4.06073778 7.05088841 -6.08060173 8.02686724 -9 9 C-8.06725891 7.87105124 -7.12859878 6.74699124 -6.1875 5.625 C-5.66542969 4.99851562 -5.14335938 4.37203125 -4.60546875 3.7265625 C-3 2 -3 2 0 0 Z " fill="#C7C7C7" transform="translate(1289,1031)"/>
<path d="M0 0 C0.33 0.66 0.66 1.32 1 2 C0.22265625 4.1640625 0.22265625 4.1640625 -0.9375 6.625 C-1.31777344 7.44226562 -1.69804688 8.25953125 -2.08984375 9.1015625 C-2.39019531 9.72804688 -2.69054687 10.35453125 -3 11 C-4.0625 9.1875 -4.0625 9.1875 -5 7 C-4.67 6.01 -4.34 5.02 -4 4 C-3.34 3.67 -2.68 3.34 -2 3 C-2 2.34 -2 1.68 -2 1 C-1.34 0.67 -0.68 0.34 0 0 Z " fill="#DCDCDA" transform="translate(942,1344)"/>
<path d="M0 0 C0.66 0.33 1.32 0.66 2 1 C-0.33333333 3.33333333 -2.66666667 5.66666667 -5 8 C-5.99 7.67 -6.98 7.34 -8 7 C-5.36 4.69 -2.72 2.38 0 0 Z " fill="#343433" transform="translate(640,597)"/>
<path d="M0 0 C0.66 0 1.32 0 2 0 C0.71111971 2.8751945 -0.53266983 5.0071564 -3 7 C-5.1875 7.6875 -5.1875 7.6875 -7 8 C-6.34 7.01 -5.68 6.02 -5 5 C-4.34 5 -3.68 5 -3 5 C-2.690625 4.360625 -2.38125 3.72125 -2.0625 3.0625 C-1 1 -1 1 0 0 Z " fill="#C3C3C3" transform="translate(1179,775)"/>
<path d="M0 0 C-1.65 1.65 -3.3 3.3 -5 5 C-5.99 4.34 -6.98 3.68 -8 3 C-6.18317104 -0.63365792 -3.70249681 -0.09743413 0 0 Z " fill="#191919" transform="translate(1246,711)"/>
<path d="M0 0 C0.66 0 1.32 0 2 0 C0.44499019 3.81684226 -2.03595495 6.19195732 -5 9 C-5.99 8.67 -6.98 8.34 -8 8 C-7.50628906 7.59007812 -7.01257812 7.18015625 -6.50390625 6.7578125 C-5.86324219 6.21898437 -5.22257812 5.68015625 -4.5625 5.125 C-3.92441406 4.59132813 -3.28632812 4.05765625 -2.62890625 3.5078125 C-0.89194996 2.0777243 -0.89194996 2.0777243 0 0 Z " fill="#CFCFCF" transform="translate(1248,708)"/>
<path d="M0 0 C0 3 0 3 -2.375 5.6875 C-5 8 -5 8 -7 8 C-5.50902342 4.2047869 -3.24299151 2.38957269 0 0 Z " fill="#383939" transform="translate(679,559)"/>
<path d="M0 0 C1 2 1 2 0.25 4.5625 C-1 7 -1 7 -4 8 C-4 4 -4 4 -2 1.75 C-1.01 0.88375 -1.01 0.88375 0 0 Z " fill="#2D2D2D" transform="translate(743,856)"/>
<path d="M0 0 C0 3.20395416 -0.74335022 5.09399739 -2 8 C-3.32 7.34 -4.64 6.68 -6 6 C-4.02 4.02 -2.04 2.04 0 0 Z " fill="#313131" transform="translate(653,944)"/>
<path d="M0 0 C0.33 0.99 0.66 1.98 1 3 C0.01 3.99 -0.98 4.98 -2 6 C-2.66 5.67 -3.32 5.34 -4 5 C-4.33 5.99 -4.66 6.98 -5 8 C-5.66 7.67 -6.32 7.34 -7 7 C-4.66666667 4.66666667 -2.33333333 2.33333333 0 0 Z " fill="#383836" transform="translate(651,586)"/>
<path d="M0 0 C0.33 0.66 0.66 1.32 1 2 C-1.47812494 5.45167403 -2.79606135 7.23163306 -7 8 C-6.02133662 6.85373678 -5.04205413 5.70800212 -4.0625 4.5625 C-3.51722656 3.92441406 -2.97195313 3.28632813 -2.41015625 2.62890625 C-1.63204305 1.73008851 -0.84063472 0.84063472 0 0 Z " fill="#2C2C2C" transform="translate(743,496)"/>
<path d="M0 0 C0.66 0.33 1.32 0.66 2 1 C1.625 3.4375 1.625 3.4375 1 6 C0.01 6.495 0.01 6.495 -1 7 C-1.99 6.34 -2.98 5.68 -4 5 C-2.68 3.35 -1.36 1.7 0 0 Z " fill="#262626" transform="translate(766,473)"/>
<path d="M0 0 C0.185625 0.9590625 0.185625 0.9590625 0.375 1.9375 C0.684375 2.9584375 0.684375 2.9584375 1 4 C1.66 4.33 2.32 4.66 3 5 C2.01 5.66 1.02 6.32 0 7 C-1.19232613 9.05003955 -1.19232613 9.05003955 -2 11 C-3 9 -3 9 -2.44140625 6.8359375 C-2.15136719 6.02382812 -1.86132812 5.21171875 -1.5625 4.375 C-1.27503906 3.55773438 -0.98757813 2.74046875 -0.69140625 1.8984375 C-0.46324219 1.27195312 -0.23507812 0.64546875 0 0 Z " fill="#3A3A3A" transform="translate(1153,1389)"/>
<path d="M0 0 C0.99928333 2.698065 1.03624754 3.88010429 0.1875 6.6875 C-1 9 -1 9 -3 10 C-2.39009109 6.44219804 -1.4216319 3.3171411 0 0 Z " fill="#9F9F9F" transform="translate(1210,1304)"/>
<path d="M0 0 C0.66 0.99 1.32 1.98 2 3 C-2.75 7 -2.75 7 -5 7 C-3.70700306 4.11562221 -2.34058637 2.12780579 0 0 Z " fill="#BFBFBE" transform="translate(1150,1165)"/>
<path d="M0 0 C0.33 0.66 0.66 1.32 1 2 C2.65 2 4.3 2 6 2 C4.71034824 3.37562854 3.37310707 4.70766393 2 6 C1.34 6 0.68 6 0 6 C0 4.02 0 2.04 0 0 Z " fill="#131313" transform="translate(1144,802)"/>
<path d="M0 0 C0.66 0 1.32 0 2 0 C1.34 1.98 0.68 3.96 0 6 C-1.65 6 -3.3 6 -5 6 C-3.38405168 3.95880212 -1.7143618 1.95927063 0 0 Z " fill="#272726" transform="translate(778,462)"/>
<path d="M0 0 C-0.33 1.65 -0.66 3.3 -1 5 C-2.65 3.35 -4.3 1.7 -6 0 C-2.25 -1.125 -2.25 -1.125 0 0 Z " fill="#DFDFDD" transform="translate(1033,705)"/>
</svg>
